
General
Complete name                            : Life Ok Rang Barse Holi Special 8th March.wmv
Format                                   : Windows Media
File size                                : 655 MiB
Duration                                 : 1h 59mn
Overall bit rate mode                    : Constant
Overall bit rate                         : 767 Kbps
Maximum Overall bit rate                 : 774 Kbps
Encoded date                             : UTC 2012-03-08 22:33:47.180

Video
ID                                       : 2
Format                                   : VC-1
Format profile                           : MP@LL
Codec ID                                 : WMV3
Codec ID/Info                            : Windows Media Video 9
Codec ID/Hint                            : WMV3
Description of the codec                 : Windows Media Video 9
Duration                                 : 1h 59mn
Bit rate mode                            : Constant
Bit rate                                 : 700 Kbps
Width                                    : 320 pixels
Height                                   : 240 pixels
Display aspect ratio                     : 4:3
Frame rate                               : 25.000 fps
Bit depth                                : 8 bits
Scan type                                : Progressive
Compression mode                         : Lossy
Bits/(Pixel*Frame)                       : 0.365
Stream size                              : 598 MiB (91%)
Language                                 : English (US)

Audio
ID                                       : 1
Format                                   : WMA
Format version                           : Version 2
Codec ID                                 : 161
Codec ID/Info                            : Windows Media Audio
Description of the codec                 : Windows Media Audio 9.2 -  64 kbps, 44 kHz, stereo (A/V) 1-pass CBR
Duration                                 : 1h 59mn
Bit rate mode                            : Constant
Bit rate                                 : 64.0 Kbps
Channel(s)                               : 2 channels
Sampling rate                            : 44.1 KHz
Bit depth                                : 16 bits
Stream size                              : 54.7 MiB (8%)

 
http://i.minus.com/j4x1ZYHncVOHj.jpg